<svg xmlns="http://www.w3.org/2000/svg" viewBox="0 0 1250 1250">
  <g fill="#16bab4" fill-rule="evenodd">
    <path d="M501 50c31-7 61-12 92-14l49-1a500 500 0 01485 533 501 501 0 01-837 344A503 503 0 01501 50zM395 71c72-30 150-45 227-46h6a598 598 0 01532 872 602 602 0 01-1016 87 596 596 0 0111-732c63-80 147-143 240-181z"/>
    <path d="M555 1024c0-18 7-35 19-48a70 70 0 01107 5c9 12 14 28 14 43a414 414 0 01-141 0z"/>
    <path d="M967 778c9-13 21-25 36-31 13-5 28-6 42-2 8 2 15 6 22 9-20 41-46 78-76 112-9 10-18 20-28 28a490 490 0 01-260 129c0-12-4-23-8-34a691 691 0 00272-211z"/>
    <path d="M183 754c16-8 34-14 52-10 18 3 33 14 44 28a687 687 0 00276 217c-4 11-8 22-8 34a490 490 0 01-364-269z"/>
    <path d="M862 705c2-9 5-18 5-27 17-10 37-14 56-10 20 4 38 16 47 34 8 15 9 33 4 49-5 13-14 24-22 35a657 657 0 01-261 197l-14-17 31-27c35-32 68-66 94-105 28-39 48-83 60-129z"/>
    <path d="M300 679c12-8 26-12 40-12 15-1 30 4 43 11 0 9 3 18 5 27 11 46 32 90 59 128 26 39 59 73 93 104l33 29-14 17a692 692 0 01-272-212 68 68 0 01-13-51c2-16 12-32 26-41z"/>
    <path d="M725 687c-1-19-2-37-8-55 11-15 30-25 49-28 14-1 28 0 42 5 19 6 37 20 46 39 7 14 7 32 3 47-11 46-30 90-56 129-36 52-82 97-130 137-7-5-14-8-22-11 22-46 41-93 55-141 12-40 20-81 21-122z"/>
    <path d="M390 677c0-16 5-32 16-44 13-16 33-25 53-28 15-2 31-2 45 5 11 4 22 12 29 22-6 18-7 36-8 55 1 47 11 94 26 138 13 43 31 84 50 125-8 3-15 6-22 11-36-30-70-62-100-98a419 419 0 01-85-163c-2-7-4-15-4-23z"/>
    <path d="M550 614c9-17 26-30 44-35 20-6 42-6 62 0 18 5 35 18 44 35 12 19 16 43 17 66 1 42-8 85-20 126-14 49-33 96-55 142-11-2-23-2-34 0-21-45-40-91-54-139-13-42-22-86-21-131 1-22 5-45 17-64z"/>
  </g>
</svg>
