<?xml version="1.0" encoding="UTF-8" standalone="no"?>
<!DOCTYPE svg PUBLIC "-//W3C//DTD SVG 20010904//EN"
              "http://www.w3.org/TR/2001/REC-SVG-20010904/DTD/svg10.dtd">

<svg xmlns="http://www.w3.org/2000/svg"
     width="13.8889in" height="13.8889in"
     viewBox="0 0 1250 1250">
  <path id="path4151"
        fill="#16bab4" stroke="none"
        style="fill-rule:evenodd"
        d="M 501.44,50.26
           C 531.56,42.51 562.41,37.78 593.43,35.79
             609.53,34.70 625.71,35.08 641.83,35.18
             733.12,37.89 823.49,66.55 899.82,116.71
             975.20,165.89 1036.96,235.72 1076.43,316.61
             1114.60,394.10 1131.85,481.66 1126.53,567.84
             1121.98,643.59 1100.04,718.29 1062.53,784.31
             1004.56,887.21 909.23,968.48 798.22,1008.93
             718.04,1038.49 630.23,1046.84 545.86,1033.39
             451.34,1018.70 361.54,975.77 290.38,911.92
             223.94,852.77 173.67,775.67 146.50,690.94
             128.90,635.80 120.76,577.61 122.79,519.75
             124.90,460.10 137.64,400.79 160.43,345.58
             188.20,278.46 230.73,217.46 284.16,168.23
             345.27,111.65 420.64,70.50 501.44,50.26
             501.44,50.26 501.44,50.26 501.44,50.26 Z
           M 395.42,70.60
           C 467.01,40.66 544.57,25.68 622.10,25.00
             622.10,25.00 627.83,25.00 627.83,25.00
             665.58,25.43 703.30,29.03 740.38,36.18
             829.95,53.52 915.34,91.92 987.92,147.21
             1051.81,195.75 1105.84,257.19 1145.77,326.79
             1185.33,395.71 1211.08,472.59 1220.49,551.53
             1228.99,620.08 1225.39,690.03 1210.41,757.43
             1199.38,805.87 1182.54,853.02 1159.86,897.24
             1120.76,974.20 1064.65,1042.39 996.94,1095.91
             923.96,1153.78 837.28,1194.19 746.02,1212.86
             680.02,1226.16 611.83,1228.68 545.08,1219.69
             469.28,1209.83 395.52,1184.85 329.05,1147.13
             256.98,1106.23 193.56,1050.24 143.99,983.83
             84.79,904.80 45.55,810.86 31.42,713.12
             20.94,642.22 23.37,569.51 38.11,499.38
             57.28,409.28 97.72,323.81 155.18,251.79
             218.23,172.41 301.65,109.25 395.42,70.60
             395.42,70.60 395.42,70.60 395.42,70.60 Z" />
  <path id="path4147"
        fill="#16bab4" stroke="none"
        d="M 554.61,1023.58
           C 555.26,1006.24 561.54,988.97 573.54,976.24
             586.56,962.04 605.64,953.54 624.97,953.74
             646.56,953.51 667.88,964.16 680.81,981.44
             690.09,993.44 694.87,1008.49 695.36,1023.60
             674.12,1027.27 652.50,1028.64 630.94,1028.64
             605.42,1028.90 579.78,1028.03 554.61,1023.58
             554.61,1023.58 554.61,1023.58 554.61,1023.58 Z" />
  <path id="path4145"
        fill="#16bab4" stroke="none"
        d="M 967.12,777.81
           C 976.11,764.94 987.73,753.25 1002.51,747.32
             1015.99,741.66 1031.35,741.08 1045.30,745.36
             1052.74,747.36 1059.79,750.53 1066.68,753.92
             1046.68,794.63 1020.94,832.49 990.62,866.21
             981.61,875.61 973.14,885.56 963.29,894.12
             892.04,962.03 799.84,1007.71 702.53,1022.80
             702.65,1011.15 698.92,1000.06 694.88,989.30
             765.27,959.41 829.84,916.54 886.56,865.36
             915.85,838.57 943.30,809.62 967.12,777.81
             967.12,777.81 967.12,777.81 967.12,777.81 Z" />
  <path id="path4143"
        fill="#16bab4" stroke="none"
        d="M 183.28,753.91
           C 199.02,745.97 217.01,739.94 234.77,743.63
             252.63,746.62 267.91,758.12 278.74,772.26
             306.24,809.82 338.57,843.67 373.53,874.32
             427.74,921.53 488.86,961.18 555.10,989.30
             551.14,1000.07 547.17,1011.13 547.48,1022.81
             457.99,1008.92 372.81,969.17 304.27,910.05
             253.96,866.88 212.49,813.42 183.28,753.91 Z" />
  <path id="path4141"
        fill="#16bab4" stroke="none"
        d="M 862.31,704.60
           C 864.46,695.70 867.11,686.79 867.04,677.53
             883.97,668.45 903.91,664.17 922.94,667.92
             942.78,671.73 961.41,684.12 970.50,702.46
             978.27,717.17 979.02,735.06 973.57,750.67
             969.18,764.15 959.96,775.18 951.57,786.35
             905.93,844.39 848.99,893.01 786.80,932.57
             756.27,951.89 724.18,968.72 690.99,983.03
             686.98,976.84 682.30,971.07 676.76,966.18
             686.88,956.84 697.84,948.42 707.88,938.98
             742.92,907.50 775.58,873.02 802.49,834.27
             830.04,795.13 850.48,750.99 862.31,704.60
             862.31,704.60 862.31,704.60 862.31,704.60 Z" />
  <path id="path4139"
        fill="#16bab4" stroke="none"
        d="M 300.20,679.03
           C 312.01,671.12 326.15,666.57 340.40,666.62
             355.26,666.27 369.88,670.67 382.94,677.52
             382.79,686.80 385.54,695.75 387.72,704.68
             399.44,750.74 419.68,794.54 446.92,833.46
             473.48,871.83 505.66,906.03 540.21,937.28
             550.85,947.30 562.43,956.31 573.22,966.16
             567.69,971.07 563.03,976.84 559.00,983.03
             512.30,962.95 467.85,937.68 426.68,907.88
             373.90,869.48 325.36,824.38 287.19,771.21
             276.66,756.79 270.59,738.34 273.62,720.47
             276.06,703.70 286.25,688.49 300.20,679.03 Z" />
  <path id="path4137"
        fill="#16bab4" stroke="none"
        d="M 725.08,686.62
           C 724.18,668.32 722.71,649.78 716.73,632.32
             728.00,616.54 746.53,606.91 765.57,604.47
             779.68,603.32 794.19,603.81 807.60,608.75
             827.06,615.39 844.74,628.96 853.73,647.74
             860.82,662.44 861.41,679.70 856.91,695.26
             845.98,741.00 826.99,784.78 800.59,823.74
             765.25,876.35 719.37,920.96 670.65,961.13
             664.13,956.32 656.79,952.78 649.24,949.89
             670.74,904.23 689.99,857.37 704.39,808.95
             716.31,769.26 724.45,728.15 725.08,686.62
             725.08,686.62 725.08,686.62 725.08,686.62 Z" />
  <path id="path4135"
        fill="#16bab4" stroke="none"
        d="M 390.23,677.03
           C 389.61,661.16 395.27,645.20 405.69,633.21
             419.11,617.29 438.99,607.69 459.38,604.61
             474.29,603.26 489.83,603.50 503.78,609.59
             515.43,614.28 525.94,622.09 533.24,632.34
             527.28,649.82 525.71,668.37 524.89,686.68
             525.55,733.99 536.17,780.58 550.71,825.42
             564.42,868.03 581.70,909.43 600.75,949.91
             593.18,952.76 585.86,956.32 579.33,961.13
             543.17,931.27 508.63,899.15 478.73,862.93
             450.55,828.98 426.58,791.20 410.35,750.07
             403.97,733.89 398.68,717.27 394.32,700.42
             392.40,692.75 390.23,685.02 390.23,677.03
             390.23,677.03 390.23,677.03 390.23,677.03 Z" />
  <path id="path4133"
        fill="#16bab4" stroke="none"
        d="M 549.72,613.64
           C 559.36,596.92 575.55,584.21 594.11,578.84
             614.14,573.17 635.77,573.16 655.81,578.83
             674.36,584.20 690.58,596.86 700.23,613.59
             712.00,633.43 716.02,656.76 716.91,679.51
             718.10,722.45 708.98,764.90 697.24,805.97
             682.86,854.77 663.55,901.96 641.91,947.95
             630.82,945.69 619.16,945.67 608.07,947.96
             586.93,902.95 567.96,856.82 553.68,809.15
             541.34,766.68 531.65,722.74 533.09,678.26
             534.10,655.94 538.18,633.09 549.72,613.64
             549.72,613.64 549.72,613.64 549.72,613.64 Z" />
</svg>
